{
    "asset" : {
        "generator" : "Khronos glTF Blender I/O v1.6.16",
        "version" : "2.0"
    },
    "scene" : 0,
    "scenes" : [
        {
            "name" : "Scene",
            "nodes" : [
                0
            ]
        }
    ],
    "nodes" : [
        {
            "mesh" : 0,
            "name" : "Text.001"
        }
    ],
    "materials" : [
        {
            "doubleSided" : true,
            "name" : "Material.001",
            "pbrMetallicRoughness" : {}
        }
    ],
    "meshes" : [
        {
            "name" : "Text.001",
            "primitives" : [
                {
                    "attributes" : {
                        "POSITION" : 0,
                        "NORMAL" : 1,
                        "TEXCOORD_0" : 2
                    },
                    "indices" : 3,
                    "material" : 0
                }
            ]
        }
    ],
    "accessors" : [
        {
            "bufferView" : 0,
            "componentType" : 5126,
            "count" : 149,
            "max" : [
                1.6755142211914062,
                0.5584934949874878,
                -1.2820227146148682
            ],
            "min" : [
                1.1808192729949951,
                -0.35723984241485596,
                -1.3608626127243042
            ],
            "type" : "VEC3"
        },
        {
            "bufferView" : 1,
            "componentType" : 5126,
            "count" : 149,
            "type" : "VEC3"
        },
        {
            "bufferView" : 2,
            "componentType" : 5126,
            "count" : 149,
            "type" : "VEC2"
        },
        {
            "bufferView" : 3,
            "componentType" : 5123,
            "count" : 564,
            "type" : "SCALAR"
        }
    ],
    "bufferViews" : [
        {
            "buffer" : 0,
            "byteLength" : 1788,
            "byteOffset" : 0
        },
        {
            "buffer" : 0,
            "byteLength" : 1788,
            "byteOffset" : 1788
        },
        {
            "buffer" : 0,
            "byteLength" : 1192,
            "byteOffset" : 3576
        },
        {
            "buffer" : 0,
            "byteLength" : 1128,
            "byteOffset" : 4768
        }
    ],
    "buffers" : [
        {
            "byteLength" : 5896,
            "uri" : "data:application/octet-stream;base64,"
        }
    ]
}
