{
    "asset" : {
        "generator" : "Khronos glTF Blender I/O v1.6.16",
        "version" : "2.0"
    },
    "extensionsUsed" : [
        "KHR_materials_clearcoat"
    ],
    "scene" : 0,
    "scenes" : [
        {
            "name" : "Scene",
            "nodes" : [
                0,
                1
            ]
        }
    ],
    "nodes" : [
        {
            "mesh" : 0,
            "name" : "Plane",
            "translation" : [
                0,
                0.014244016259908676,
                0
            ]
        },
        {
            "mesh" : 1,
            "name" : "Text",
            "translation" : [
                -0.6000000238418579,
                0.18763020634651184,
                0
            ]
        }
    ],
    "materials" : [
        {
            "doubleSided" : true,
            "name" : "CW-Plastic- matte",
            "pbrMetallicRoughness" : {
                "metallicFactor" : 0
            }
        },
        {
            "doubleSided" : true,
            "extensions" : {
                "KHR_materials_clearcoat" : {
                    "clearcoatFactor" : 3,
                    "clearcoatRoughnessFactor" : 0.029999999329447746
                }
            },
            "name" : "CP-Ferrari Red",
            "pbrMetallicRoughness" : {
                "baseColorFactor" : [
                    0.8713673949241638,
                    0.0065119946375489235,
                    0.01298304833471775,
                    1
                ],
                "roughnessFactor" : 0.6318182349205017
            }
        }
    ],
    "meshes" : [
        {
            "name" : "Plane.001",
            "primitives" : [
                {
                    "attributes" : {
                        "POSITION" : 0,
                        "NORMAL" : 1,
                        "TEXCOORD_0" : 2
                    },
                    "indices" : 3,
                    "material" : 0
                }
            ]
        },
        {
            "name" : "Text",
            "primitives" : [
                {
                    "attributes" : {
                        "POSITION" : 4,
                        "NORMAL" : 5,
                        "TEXCOORD_0" : 6
                    },
                    "indices" : 7,
                    "material" : 1
                }
            ]
        }
    ],
    "accessors" : [
        {
            "bufferView" : 0,
            "componentType" : 5126,
            "count" : 72,
            "max" : [
                3.819937229156494,
                0.1745554655790329,
                3.819937229156494
            ],
            "min" : [
                -3.819937229156494,
                -0.10695833712816238,
                -3.819937229156494
            ],
            "type" : "VEC3"
        },
        {
            "bufferView" : 1,
            "componentType" : 5126,
            "count" : 72,
            "type" : "VEC3"
        },
        {
            "bufferView" : 2,
            "componentType" : 5126,
            "count" : 72,
            "type" : "VEC2"
        },
        {
            "bufferView" : 3,
            "componentType" : 5123,
            "count" : 132,
            "type" : "SCALAR"
        },
        {
            "bufferView" : 4,
            "componentType" : 5126,
            "count" : 542,
            "max" : [
                1.6731153726577759,
                0,
                0.46501424908638
            ],
            "min" : [
                -0.43278172612190247,
                -0.12800003588199615,
                -0.47600454092025757
            ],
            "type" : "VEC3"
        },
        {
            "bufferView" : 5,
            "componentType" : 5126,
            "count" : 542,
            "type" : "VEC3"
        },
        {
            "bufferView" : 6,
            "componentType" : 5126,
            "count" : 542,
            "type" : "VEC2"
        },
        {
            "bufferView" : 7,
            "componentType" : 5123,
            "count" : 1914,
            "type" : "SCALAR"
        }
    ],
    "bufferViews" : [
        {
            "buffer" : 0,
            "byteLength" : 864,
            "byteOffset" : 0
        },
        {
            "buffer" : 0,
            "byteLength" : 864,
            "byteOffset" : 864
        },
        {
            "buffer" : 0,
            "byteLength" : 576,
            "byteOffset" : 1728
        },
        {
            "buffer" : 0,
            "byteLength" : 264,
            "byteOffset" : 2304
        },
        {
            "buffer" : 0,
            "byteLength" : 6504,
            "byteOffset" : 2568
        },
        {
            "buffer" : 0,
            "byteLength" : 6504,
            "byteOffset" : 9072
        },
        {
            "buffer" : 0,
            "byteLength" : 4336,
            "byteOffset" : 15576
        },
        {
            "buffer" : 0,
            "byteLength" : 3828,
            "byteOffset" : 19912
        }
    ],
    "buffers" : [
        {
            "byteLength" : 23740,
            "uri" : "data:application/octet-stream;base64,"
        }
    ]
}
