{
    "asset" : {
        "generator" : "Khronos glTF Blender I/O v1.6.16",
        "version" : "2.0"
    },
    "extensionsUsed" : [
        "KHR_materials_clearcoat"
    ],
    "scene" : 0,
    "scenes" : [
        {
            "name" : "Scene",
            "nodes" : [
                0
            ]
        }
    ],
    "nodes" : [
        {
            "mesh" : 0,
            "name" : "Plane.001",
            "rotation" : [
                0.7071068286895752,
                0,
                0,
                0.7071068286895752
            ],
            "translation" : [
                0,
                0.014244016259908676,
                0
            ]
        }
    ],
    "materials" : [
        {
            "doubleSided" : true,
            "name" : "CW-Plastic- matte",
            "pbrMetallicRoughness" : {
                "metallicFactor" : 0
            }
        },
        {
            "doubleSided" : true,
            "extensions" : {
                "KHR_materials_clearcoat" : {
                    "clearcoatFactor" : 3,
                    "clearcoatRoughnessFactor" : 0.029999999329447746
                }
            },
            "name" : "CP-Ferrari Red",
            "pbrMetallicRoughness" : {
                "baseColorFactor" : [
                    0.8713673949241638,
                    0.0065119946375489235,
                    0.01298304833471775,
                    1
                ],
                "roughnessFactor" : 0.6318182349205017
            }
        }
    ],
    "meshes" : [
        {
            "name" : "Plane.003",
            "primitives" : [
                {
                    "attributes" : {
                        "POSITION" : 0,
                        "NORMAL" : 1,
                        "TEXCOORD_0" : 2
                    },
                    "indices" : 3,
                    "material" : 0
                },
                {
                    "attributes" : {
                        "POSITION" : 4,
                        "NORMAL" : 5,
                        "TEXCOORD_0" : 6
                    },
                    "indices" : 7,
                    "material" : 1
                }
            ]
        }
    ],
    "accessors" : [
        {
            "bufferView" : 0,
            "componentType" : 5126,
            "count" : 609,
            "max" : [
                3.819937229156494,
                0.1745554655790329,
                3.819937229156494
            ],
            "min" : [
                -3.819937229156494,
                -0.10695833712816238,
                -3.819937229156494
            ],
            "type" : "VEC3"
        },
        {
            "bufferView" : 1,
            "componentType" : 5126,
            "count" : 609,
            "type" : "VEC3"
        },
        {
            "bufferView" : 2,
            "componentType" : 5126,
            "count" : 609,
            "type" : "VEC2"
        },
        {
            "bufferView" : 3,
            "componentType" : 5123,
            "count" : 1908,
            "type" : "SCALAR"
        },
        {
            "bufferView" : 4,
            "componentType" : 5126,
            "count" : 7335,
            "max" : [
                1.0723950862884521,
                0.17338618636131287,
                0.4649745523929596
            ],
            "min" : [
                -1.0327672958374023,
                0.04538601636886597,
                -0.47599634528160095
            ],
            "type" : "VEC3"
        },
        {
            "bufferView" : 5,
            "componentType" : 5126,
            "count" : 7335,
            "type" : "VEC3"
        },
        {
            "bufferView" : 6,
            "componentType" : 5126,
            "count" : 7335,
            "type" : "VEC2"
        },
        {
            "bufferView" : 7,
            "componentType" : 5123,
            "count" : 40614,
            "type" : "SCALAR"
        }
    ],
    "bufferViews" : [
        {
            "buffer" : 0,
            "byteLength" : 7308,
            "byteOffset" : 0
        },
        {
            "buffer" : 0,
            "byteLength" : 7308,
            "byteOffset" : 7308
        },
        {
            "buffer" : 0,
            "byteLength" : 4872,
            "byteOffset" : 14616
        },
        {
            "buffer" : 0,
            "byteLength" : 3816,
            "byteOffset" : 19488
        },
        {
            "buffer" : 0,
            "byteLength" : 88020,
            "byteOffset" : 23304
        },
        {
            "buffer" : 0,
            "byteLength" : 88020,
            "byteOffset" : 111324
        },
        {
            "buffer" : 0,
            "byteLength" : 58680,
            "byteOffset" : 199344
        },
        {
            "buffer" : 0,
            "byteLength" : 81228,
            "byteOffset" : 258024
        }
    ],
    "buffers" : [
        {
            "byteLength" : 339252,
            "uri" : "data:application/octet-stream;base64,"
        }
    ]
}
