{
    "asset" : {
        "generator" : "Khronos glTF Blender I/O v1.6.16",
        "version" : "2.0"
    },
    "extensionsUsed" : [
        "KHR_materials_clearcoat"
    ],
    "scene" : 0,
    "scenes" : [
        {
            "name" : "Scene",
            "nodes" : [
                0
            ]
        }
    ],
    "nodes" : [
        {
            "mesh" : 0,
            "name" : "Text.003"
        }
    ],
    "materials" : [
        {
            "doubleSided" : true,
            "extensions" : {
                "KHR_materials_clearcoat" : {
                    "clearcoatFactor" : 3,
                    "clearcoatRoughnessFactor" : 0.029999999329447746
                }
            },
            "name" : "CP-Ferrari Red",
            "pbrMetallicRoughness" : {
                "baseColorFactor" : [
                    0.8713673949241638,
                    0.0065119946375489235,
                    0.01298304833471775,
                    1
                ],
                "roughnessFactor" : 0.6318182349205017
            }
        }
    ],
    "meshes" : [
        {
            "name" : "Text.003",
            "primitives" : [
                {
                    "attributes" : {
                        "POSITION" : 0,
                        "NORMAL" : 1,
                        "TEXCOORD_0" : 2
                    },
                    "indices" : 3,
                    "material" : 0
                }
            ]
        }
    ],
    "accessors" : [
        {
            "bufferView" : 0,
            "componentType" : 5126,
            "count" : 7335,
            "max" : [
                4.467782974243164,
                1.407403588294983,
                2.440946102142334
            ],
            "min" : [
                -1.0841037034988403,
                -1.3748148679733276,
                -0.9642000198364258
            ],
            "type" : "VEC3"
        },
        {
            "bufferView" : 1,
            "componentType" : 5126,
            "count" : 7335,
            "type" : "VEC3"
        },
        {
            "bufferView" : 2,
            "componentType" : 5126,
            "count" : 7335,
            "type" : "VEC2"
        },
        {
            "bufferView" : 3,
            "componentType" : 5123,
            "count" : 40614,
            "type" : "SCALAR"
        }
    ],
    "bufferViews" : [
        {
            "buffer" : 0,
            "byteLength" : 88020,
            "byteOffset" : 0
        },
        {
            "buffer" : 0,
            "byteLength" : 88020,
            "byteOffset" : 88020
        },
        {
            "buffer" : 0,
            "byteLength" : 58680,
            "byteOffset" : 176040
        },
        {
            "buffer" : 0,
            "byteLength" : 81228,
            "byteOffset" : 234720
        }
    ],
    "buffers" : [
        {
            "byteLength" : 315948,
            "uri" : "data:application/octet-stream;base64,"
        }
    ]
}
