{
    "asset" : {
        "generator" : "Khronos glTF Blender I/O v1.6.16",
        "version" : "2.0"
    },
    "scene" : 0,
    "scenes" : [
        {
            "name" : "Scene",
            "nodes" : [
                0
            ]
        }
    ],
    "nodes" : [
        {
            "mesh" : 0,
            "name" : "Cube.001"
        }
    ],
    "materials" : [
        {
            "doubleSided" : true,
            "name" : "CW-Gunmetal",
            "pbrMetallicRoughness" : {
                "roughnessFactor" : 0.3499999940395355
            }
        }
    ],
    "meshes" : [
        {
            "name" : "Cube.005",
            "primitives" : [
                {
                    "attributes" : {
                        "POSITION" : 0,
                        "NORMAL" : 1,
                        "TEXCOORD_0" : 2
                    },
                    "indices" : 3,
                    "material" : 0
                }
            ]
        }
    ],
    "accessors" : [
        {
            "bufferView" : 0,
            "componentType" : 5126,
            "count" : 6841,
            "max" : [
                1.0924261808395386,
                1.0000003576278687,
                1.000000238418579
            ],
            "min" : [
                -1.0924261808395386,
                -1.0000004768371582,
                -1.0000001192092896
            ],
            "type" : "VEC3"
        },
        {
            "bufferView" : 1,
            "componentType" : 5126,
            "count" : 6841,
            "type" : "VEC3"
        },
        {
            "bufferView" : 2,
            "componentType" : 5126,
            "count" : 6841,
            "type" : "VEC2"
        },
        {
            "bufferView" : 3,
            "componentType" : 5123,
            "count" : 34680,
            "type" : "SCALAR"
        }
    ],
    "bufferViews" : [
        {
            "buffer" : 0,
            "byteLength" : 82092,
            "byteOffset" : 0
        },
        {
            "buffer" : 0,
            "byteLength" : 82092,
            "byteOffset" : 82092
        },
        {
            "buffer" : 0,
            "byteLength" : 54728,
            "byteOffset" : 164184
        },
        {
            "buffer" : 0,
            "byteLength" : 69360,
            "byteOffset" : 218912
        }
    ],
    "buffers" : [
        {
            "byteLength" : 288272,
            "uri" : "data:application/octet-stream;base64,"
        }
    ]
}
