{
    "asset" : {
        "generator" : "Khronos glTF Blender I/O v1.6.16",
        "version" : "2.0"
    },
    "scene" : 0,
    "scenes" : [
        {
            "name" : "Scene",
            "nodes" : [
                0
            ]
        }
    ],
    "nodes" : [
        {
            "mesh" : 0,
            "name" : "Cube.005",
            "translation" : [
                0,
                -3.070948600769043,
                0
            ]
        }
    ],
    "materials" : [
        {
            "doubleSided" : true,
            "name" : "sy_steel_mat",
            "pbrMetallicRoughness" : {}
        },
        {
            "doubleSided" : true,
            "name" : "CW-Plastic-Dapple",
            "pbrMetallicRoughness" : {
                "metallicFactor" : 0
            }
        },
        {
            "doubleSided" : true,
            "name" : "sy_red_matte",
            "pbrMetallicRoughness" : {}
        }
    ],
    "meshes" : [
        {
            "name" : "Cube.008",
            "primitives" : [
                {
                    "attributes" : {
                        "POSITION" : 0,
                        "NORMAL" : 1,
                        "TEXCOORD_0" : 2
                    },
                    "indices" : 3,
                    "material" : 0
                },
                {
                    "attributes" : {
                        "POSITION" : 4,
                        "NORMAL" : 5,
                        "TEXCOORD_0" : 6
                    },
                    "indices" : 7,
                    "material" : 1
                },
                {
                    "attributes" : {
                        "POSITION" : 8,
                        "NORMAL" : 9,
                        "TEXCOORD_0" : 10
                    },
                    "indices" : 11,
                    "material" : 2
                }
            ]
        }
    ],
    "accessors" : [
        {
            "bufferView" : 0,
            "componentType" : 5126,
            "count" : 12151,
            "max" : [
                1.9643902778625488,
                5.247166633605957,
                1.1443744897842407
            ],
            "min" : [
                -1.9643902778625488,
                -1.4595270156860352,
                -1
            ],
            "type" : "VEC3"
        },
        {
            "bufferView" : 1,
            "componentType" : 5126,
            "count" : 12151,
            "type" : "VEC3"
        },
        {
            "bufferView" : 2,
            "componentType" : 5126,
            "count" : 12151,
            "type" : "VEC2"
        },
        {
            "bufferView" : 3,
            "componentType" : 5123,
            "count" : 53382,
            "type" : "SCALAR"
        },
        {
            "bufferView" : 4,
            "componentType" : 5126,
            "count" : 1806,
            "max" : [
                0.6248531937599182,
                2.149044990539551,
                0.6214630603790283
            ],
            "min" : [
                -0.6248540282249451,
                1.38444185256958,
                -0.6381949186325073
            ],
            "type" : "VEC3"
        },
        {
            "bufferView" : 5,
            "componentType" : 5126,
            "count" : 1806,
            "type" : "VEC3"
        },
        {
            "bufferView" : 6,
            "componentType" : 5126,
            "count" : 1806,
            "type" : "VEC2"
        },
        {
            "bufferView" : 7,
            "componentType" : 5123,
            "count" : 5208,
            "type" : "SCALAR"
        },
        {
            "bufferView" : 8,
            "componentType" : 5126,
            "count" : 2818,
            "max" : [
                2.064314126968384,
                5.527281761169434,
                1.1479012966156006
            ],
            "min" : [
                -2.064314365386963,
                2.8120710849761963,
                -0.2588775157928467
            ],
            "type" : "VEC3"
        },
        {
            "bufferView" : 9,
            "componentType" : 5126,
            "count" : 2818,
            "type" : "VEC3"
        },
        {
            "bufferView" : 10,
            "componentType" : 5126,
            "count" : 2818,
            "type" : "VEC2"
        },
        {
            "bufferView" : 11,
            "componentType" : 5123,
            "count" : 10200,
            "type" : "SCALAR"
        }
    ],
    "bufferViews" : [
        {
            "buffer" : 0,
            "byteLength" : 145812,
            "byteOffset" : 0
        },
        {
            "buffer" : 0,
            "byteLength" : 145812,
            "byteOffset" : 145812
        },
        {
            "buffer" : 0,
            "byteLength" : 97208,
            "byteOffset" : 291624
        },
        {
            "buffer" : 0,
            "byteLength" : 106764,
            "byteOffset" : 388832
        },
        {
            "buffer" : 0,
            "byteLength" : 21672,
            "byteOffset" : 495596
        },
        {
            "buffer" : 0,
            "byteLength" : 21672,
            "byteOffset" : 517268
        },
        {
            "buffer" : 0,
            "byteLength" : 14448,
            "byteOffset" : 538940
        },
        {
            "buffer" : 0,
            "byteLength" : 10416,
            "byteOffset" : 553388
        },
        {
            "buffer" : 0,
            "byteLength" : 33816,
            "byteOffset" : 563804
        },
        {
            "buffer" : 0,
            "byteLength" : 33816,
            "byteOffset" : 597620
        },
        {
            "buffer" : 0,
            "byteLength" : 22544,
            "byteOffset" : 631436
        },
        {
            "buffer" : 0,
            "byteLength" : 20400,
            "byteOffset" : 653980
        }
    ],
    "buffers" : [
        {
            "byteLength" : 674380,
            "uri" : "data:application/octet-stream;base64,"
        }
    ]
}
